<mxfile host="app.diagrams.net" modified="2023-07-08T15:57:41.301Z" agent="Mozilla/5.0 (Macintosh; Intel Mac OS X 10_15_7) AppleWebKit/537.36 (KHTML, like Gecko) Chrome/114.0.0.0 Safari/537.36" etag="6pNyP6yTSNqh3ij9i0J2" version="21.6.1" type="device">
  <diagram name="Page-1" id="2Ydc0ga2yBgGYKWRJUcz">
    <mxGraphModel dx="817" dy="591" grid="1" gridSize="10" guides="1" tooltips="1" connect="1" arrows="1" fold="1" page="1" pageScale="1" pageWidth="850" pageHeight="1100" math="0" shadow="0">
      <root>
        <mxCell id="0" />
        <mxCell id="1" parent="0" />
        <mxCell id="GIrnh-LCdGbgV-ddZKDn-6" style="edgeStyle=orthogonalEdgeStyle;rounded=0;orthogonalLoop=1;jettySize=auto;html=1;entryX=0.5;entryY=0;entryDx=0;entryDy=0;" parent="1" source="GIrnh-LCdGbgV-ddZKDn-4" target="GIrnh-LCdGbgV-ddZKDn-5" edge="1">
          <mxGeometry relative="1" as="geometry" />
        </mxCell>
        <mxCell id="GIrnh-LCdGbgV-ddZKDn-4" value="PE, PLA. PMMA, PS, UD" style="shape=cylinder3;whiteSpace=wrap;html=1;boundedLbl=1;backgroundOutline=1;size=15;" parent="1" vertex="1">
          <mxGeometry x="620" y="90" width="170" height="80" as="geometry" />
        </mxCell>
        <mxCell id="GIrnh-LCdGbgV-ddZKDn-7" style="edgeStyle=orthogonalEdgeStyle;rounded=0;orthogonalLoop=1;jettySize=auto;html=1;entryX=0.5;entryY=0;entryDx=0;entryDy=0;" parent="1" source="GIrnh-LCdGbgV-ddZKDn-5" target="GIrnh-LCdGbgV-ddZKDn-8" edge="1">
          <mxGeometry relative="1" as="geometry">
            <mxPoint x="705" y="306" as="targetPoint" />
          </mxGeometry>
        </mxCell>
        <mxCell id="GIrnh-LCdGbgV-ddZKDn-11" style="edgeStyle=orthogonalEdgeStyle;rounded=0;orthogonalLoop=1;jettySize=auto;html=1;entryX=0.5;entryY=0;entryDx=0;entryDy=0;" parent="1" source="GIrnh-LCdGbgV-ddZKDn-5" target="GIrnh-LCdGbgV-ddZKDn-9" edge="1">
          <mxGeometry relative="1" as="geometry" />
        </mxCell>
        <mxCell id="GIrnh-LCdGbgV-ddZKDn-12" style="edgeStyle=orthogonalEdgeStyle;rounded=0;orthogonalLoop=1;jettySize=auto;html=1;entryX=0.5;entryY=0;entryDx=0;entryDy=0;" parent="1" source="GIrnh-LCdGbgV-ddZKDn-5" target="GIrnh-LCdGbgV-ddZKDn-10" edge="1">
          <mxGeometry relative="1" as="geometry" />
        </mxCell>
        <mxCell id="GIrnh-LCdGbgV-ddZKDn-29" style="edgeStyle=orthogonalEdgeStyle;rounded=0;orthogonalLoop=1;jettySize=auto;html=1;entryX=0.5;entryY=0;entryDx=0;entryDy=0;" parent="1" source="GIrnh-LCdGbgV-ddZKDn-5" target="GIrnh-LCdGbgV-ddZKDn-30" edge="1">
          <mxGeometry relative="1" as="geometry">
            <mxPoint x="1020" y="706" as="targetPoint" />
          </mxGeometry>
        </mxCell>
        <mxCell id="GIrnh-LCdGbgV-ddZKDn-5" value="Feature Selection" style="rounded=1;whiteSpace=wrap;html=1;" parent="1" vertex="1">
          <mxGeometry x="645" y="206" width="120" height="60" as="geometry" />
        </mxCell>
        <mxCell id="GIrnh-LCdGbgV-ddZKDn-8" value="LDA" style="rounded=1;whiteSpace=wrap;html=1;" parent="1" vertex="1">
          <mxGeometry x="533" y="295" width="80" height="40" as="geometry" />
        </mxCell>
        <mxCell id="GIrnh-LCdGbgV-ddZKDn-14" value="" style="edgeStyle=orthogonalEdgeStyle;rounded=0;orthogonalLoop=1;jettySize=auto;html=1;" parent="1" source="GIrnh-LCdGbgV-ddZKDn-9" target="GIrnh-LCdGbgV-ddZKDn-13" edge="1">
          <mxGeometry relative="1" as="geometry" />
        </mxCell>
        <mxCell id="GIrnh-LCdGbgV-ddZKDn-9" value="PCA" style="rounded=1;whiteSpace=wrap;html=1;" parent="1" vertex="1">
          <mxGeometry x="665" y="295" width="80" height="40" as="geometry" />
        </mxCell>
        <mxCell id="GIrnh-LCdGbgV-ddZKDn-10" value="t-SNE" style="rounded=1;whiteSpace=wrap;html=1;" parent="1" vertex="1">
          <mxGeometry x="810" y="295" width="80" height="40" as="geometry" />
        </mxCell>
        <mxCell id="GIrnh-LCdGbgV-ddZKDn-21" value="" style="edgeStyle=orthogonalEdgeStyle;rounded=0;orthogonalLoop=1;jettySize=auto;html=1;" parent="1" source="GIrnh-LCdGbgV-ddZKDn-13" target="GIrnh-LCdGbgV-ddZKDn-20" edge="1">
          <mxGeometry relative="1" as="geometry" />
        </mxCell>
        <mxCell id="GIrnh-LCdGbgV-ddZKDn-13" value="Outliner Detection" style="whiteSpace=wrap;html=1;rounded=1;" parent="1" vertex="1">
          <mxGeometry x="645" y="370" width="120" height="47" as="geometry" />
        </mxCell>
        <mxCell id="GIrnh-LCdGbgV-ddZKDn-23" value="" style="edgeStyle=orthogonalEdgeStyle;rounded=0;orthogonalLoop=1;jettySize=auto;html=1;" parent="1" source="GIrnh-LCdGbgV-ddZKDn-20" target="GIrnh-LCdGbgV-ddZKDn-22" edge="1">
          <mxGeometry relative="1" as="geometry" />
        </mxCell>
        <mxCell id="GIrnh-LCdGbgV-ddZKDn-26" value="" style="edgeStyle=orthogonalEdgeStyle;rounded=0;orthogonalLoop=1;jettySize=auto;html=1;" parent="1" source="GIrnh-LCdGbgV-ddZKDn-20" target="GIrnh-LCdGbgV-ddZKDn-25" edge="1">
          <mxGeometry relative="1" as="geometry" />
        </mxCell>
        <mxCell id="GIrnh-LCdGbgV-ddZKDn-20" value="If Outliner" style="rhombus;whiteSpace=wrap;html=1;rounded=1;" parent="1" vertex="1">
          <mxGeometry x="652.5" y="455" width="105" height="64.5" as="geometry" />
        </mxCell>
        <mxCell id="GIrnh-LCdGbgV-ddZKDn-22" value="Out" style="whiteSpace=wrap;html=1;rounded=1;" parent="1" vertex="1">
          <mxGeometry x="824" y="466.13" width="90" height="42.25" as="geometry" />
        </mxCell>
        <mxCell id="GIrnh-LCdGbgV-ddZKDn-24" value="Yes" style="text;strokeColor=none;align=center;fillColor=none;html=1;verticalAlign=middle;whiteSpace=wrap;rounded=0;" parent="1" vertex="1">
          <mxGeometry x="757.5" y="455" width="60" height="30" as="geometry" />
        </mxCell>
        <mxCell id="GIrnh-LCdGbgV-ddZKDn-31" style="edgeStyle=orthogonalEdgeStyle;rounded=0;orthogonalLoop=1;jettySize=auto;html=1;entryX=0.5;entryY=0;entryDx=0;entryDy=0;" parent="1" source="GIrnh-LCdGbgV-ddZKDn-25" target="GIrnh-LCdGbgV-ddZKDn-34" edge="1">
          <mxGeometry relative="1" as="geometry">
            <mxPoint x="530" y="665" as="targetPoint" />
          </mxGeometry>
        </mxCell>
        <mxCell id="GIrnh-LCdGbgV-ddZKDn-33" value="" style="edgeStyle=orthogonalEdgeStyle;rounded=0;orthogonalLoop=1;jettySize=auto;html=1;" parent="1" source="GIrnh-LCdGbgV-ddZKDn-25" target="GIrnh-LCdGbgV-ddZKDn-32" edge="1">
          <mxGeometry relative="1" as="geometry" />
        </mxCell>
        <mxCell id="GIrnh-LCdGbgV-ddZKDn-39" style="edgeStyle=orthogonalEdgeStyle;rounded=0;orthogonalLoop=1;jettySize=auto;html=1;entryX=0.5;entryY=0;entryDx=0;entryDy=0;" parent="1" source="GIrnh-LCdGbgV-ddZKDn-25" target="GIrnh-LCdGbgV-ddZKDn-38" edge="1">
          <mxGeometry relative="1" as="geometry" />
        </mxCell>
        <mxCell id="GIrnh-LCdGbgV-ddZKDn-25" value="Classification" style="whiteSpace=wrap;html=1;rounded=1;" parent="1" vertex="1">
          <mxGeometry x="645" y="565" width="120" height="40" as="geometry" />
        </mxCell>
        <mxCell id="GIrnh-LCdGbgV-ddZKDn-27" value="No" style="text;strokeColor=none;align=center;fillColor=none;html=1;verticalAlign=middle;whiteSpace=wrap;rounded=0;" parent="1" vertex="1">
          <mxGeometry x="697.5" y="520" width="60" height="30" as="geometry" />
        </mxCell>
        <mxCell id="GIrnh-LCdGbgV-ddZKDn-43" style="edgeStyle=orthogonalEdgeStyle;rounded=0;orthogonalLoop=1;jettySize=auto;html=1;entryX=1;entryY=0.5;entryDx=0;entryDy=0;" parent="1" source="GIrnh-LCdGbgV-ddZKDn-30" target="GIrnh-LCdGbgV-ddZKDn-36" edge="1">
          <mxGeometry relative="1" as="geometry">
            <Array as="points">
              <mxPoint x="950" y="810" />
            </Array>
          </mxGeometry>
        </mxCell>
        <mxCell id="GIrnh-LCdGbgV-ddZKDn-30" value="Random Forest" style="rounded=1;whiteSpace=wrap;html=1;" parent="1" vertex="1">
          <mxGeometry x="900" y="665" width="106" height="40" as="geometry" />
        </mxCell>
        <mxCell id="GIrnh-LCdGbgV-ddZKDn-41" style="edgeStyle=orthogonalEdgeStyle;rounded=0;orthogonalLoop=1;jettySize=auto;html=1;entryX=0.5;entryY=0;entryDx=0;entryDy=0;" parent="1" source="GIrnh-LCdGbgV-ddZKDn-32" target="GIrnh-LCdGbgV-ddZKDn-36" edge="1">
          <mxGeometry relative="1" as="geometry" />
        </mxCell>
        <mxCell id="GIrnh-LCdGbgV-ddZKDn-32" value="KNN" style="whiteSpace=wrap;html=1;rounded=1;" parent="1" vertex="1">
          <mxGeometry x="662.5" y="665" width="85" height="40" as="geometry" />
        </mxCell>
        <mxCell id="GIrnh-LCdGbgV-ddZKDn-35" style="edgeStyle=orthogonalEdgeStyle;rounded=0;orthogonalLoop=1;jettySize=auto;html=1;entryX=0;entryY=0.5;entryDx=0;entryDy=0;" parent="1" source="GIrnh-LCdGbgV-ddZKDn-34" target="GIrnh-LCdGbgV-ddZKDn-36" edge="1">
          <mxGeometry relative="1" as="geometry">
            <mxPoint x="590" y="865" as="targetPoint" />
            <Array as="points">
              <mxPoint x="568" y="810" />
            </Array>
          </mxGeometry>
        </mxCell>
        <mxCell id="GIrnh-LCdGbgV-ddZKDn-34" value="SVM" style="rounded=1;whiteSpace=wrap;html=1;" parent="1" vertex="1">
          <mxGeometry x="523" y="665" width="90" height="40" as="geometry" />
        </mxCell>
        <mxCell id="GIrnh-LCdGbgV-ddZKDn-36" value="Ensemble Model" style="rounded=1;whiteSpace=wrap;html=1;" parent="1" vertex="1">
          <mxGeometry x="704" y="780" width="120" height="60" as="geometry" />
        </mxCell>
        <mxCell id="GIrnh-LCdGbgV-ddZKDn-42" style="edgeStyle=orthogonalEdgeStyle;rounded=0;orthogonalLoop=1;jettySize=auto;html=1;entryX=0.5;entryY=0;entryDx=0;entryDy=0;" parent="1" source="GIrnh-LCdGbgV-ddZKDn-38" target="GIrnh-LCdGbgV-ddZKDn-36" edge="1">
          <mxGeometry relative="1" as="geometry" />
        </mxCell>
        <mxCell id="GIrnh-LCdGbgV-ddZKDn-38" value="K-means" style="rounded=1;whiteSpace=wrap;html=1;" parent="1" vertex="1">
          <mxGeometry x="780" y="665" width="90" height="40" as="geometry" />
        </mxCell>
        <mxCell id="GIrnh-LCdGbgV-ddZKDn-58" style="edgeStyle=orthogonalEdgeStyle;rounded=0;orthogonalLoop=1;jettySize=auto;html=1;entryX=0.5;entryY=0;entryDx=0;entryDy=0;" parent="1" source="GIrnh-LCdGbgV-ddZKDn-52" target="GIrnh-LCdGbgV-ddZKDn-54" edge="1">
          <mxGeometry relative="1" as="geometry" />
        </mxCell>
        <mxCell id="GIrnh-LCdGbgV-ddZKDn-52" value="PS+PMMA, PS+PE, PS+PLA, PS, PMMA, PE, PLA" style="shape=cylinder3;whiteSpace=wrap;html=1;boundedLbl=1;backgroundOutline=1;size=15;" parent="1" vertex="1">
          <mxGeometry x="1220" y="160" width="200" height="90" as="geometry" />
        </mxCell>
        <mxCell id="GIrnh-LCdGbgV-ddZKDn-59" style="edgeStyle=orthogonalEdgeStyle;rounded=0;orthogonalLoop=1;jettySize=auto;html=1;" parent="1" source="GIrnh-LCdGbgV-ddZKDn-54" target="GIrnh-LCdGbgV-ddZKDn-55" edge="1">
          <mxGeometry relative="1" as="geometry" />
        </mxCell>
        <mxCell id="GIrnh-LCdGbgV-ddZKDn-60" style="edgeStyle=orthogonalEdgeStyle;rounded=0;orthogonalLoop=1;jettySize=auto;html=1;entryX=0.5;entryY=0;entryDx=0;entryDy=0;entryPerimeter=0;" parent="1" source="GIrnh-LCdGbgV-ddZKDn-54" target="GIrnh-LCdGbgV-ddZKDn-56" edge="1">
          <mxGeometry relative="1" as="geometry" />
        </mxCell>
        <mxCell id="GIrnh-LCdGbgV-ddZKDn-61" style="edgeStyle=orthogonalEdgeStyle;rounded=0;orthogonalLoop=1;jettySize=auto;html=1;entryX=0.5;entryY=0;entryDx=0;entryDy=0;entryPerimeter=0;" parent="1" source="GIrnh-LCdGbgV-ddZKDn-54" target="GIrnh-LCdGbgV-ddZKDn-57" edge="1">
          <mxGeometry relative="1" as="geometry" />
        </mxCell>
        <mxCell id="GIrnh-LCdGbgV-ddZKDn-78" style="edgeStyle=orthogonalEdgeStyle;rounded=0;orthogonalLoop=1;jettySize=auto;html=1;entryX=0.5;entryY=0;entryDx=0;entryDy=0;" parent="1" source="GIrnh-LCdGbgV-ddZKDn-54" target="GIrnh-LCdGbgV-ddZKDn-69" edge="1">
          <mxGeometry relative="1" as="geometry" />
        </mxCell>
        <mxCell id="GIrnh-LCdGbgV-ddZKDn-54" value="Data Division" style="rounded=1;whiteSpace=wrap;html=1;" parent="1" vertex="1">
          <mxGeometry x="1260" y="290" width="120" height="45" as="geometry" />
        </mxCell>
        <mxCell id="GIrnh-LCdGbgV-ddZKDn-55" value="PS+PMMA, PS, PMMA" style="shape=cylinder3;whiteSpace=wrap;html=1;boundedLbl=1;backgroundOutline=1;size=15;" parent="1" vertex="1">
          <mxGeometry x="1070" y="375" width="150" height="80" as="geometry" />
        </mxCell>
        <mxCell id="GIrnh-LCdGbgV-ddZKDn-63" style="edgeStyle=orthogonalEdgeStyle;rounded=0;orthogonalLoop=1;jettySize=auto;html=1;entryX=0.5;entryY=0;entryDx=0;entryDy=0;" parent="1" source="GIrnh-LCdGbgV-ddZKDn-56" target="GIrnh-LCdGbgV-ddZKDn-62" edge="1">
          <mxGeometry relative="1" as="geometry" />
        </mxCell>
        <mxCell id="GIrnh-LCdGbgV-ddZKDn-56" value="PS+PE, PS, PE" style="shape=cylinder3;whiteSpace=wrap;html=1;boundedLbl=1;backgroundOutline=1;size=15;" parent="1" vertex="1">
          <mxGeometry x="1245" y="375" width="150" height="80" as="geometry" />
        </mxCell>
        <mxCell id="GIrnh-LCdGbgV-ddZKDn-57" value="PS+PLA, PS, PLA" style="shape=cylinder3;whiteSpace=wrap;html=1;boundedLbl=1;backgroundOutline=1;size=15;" parent="1" vertex="1">
          <mxGeometry x="1420" y="375" width="150" height="80" as="geometry" />
        </mxCell>
        <mxCell id="GIrnh-LCdGbgV-ddZKDn-77" style="edgeStyle=orthogonalEdgeStyle;rounded=0;orthogonalLoop=1;jettySize=auto;html=1;entryX=0.5;entryY=0;entryDx=0;entryDy=0;" parent="1" source="GIrnh-LCdGbgV-ddZKDn-62" target="GIrnh-LCdGbgV-ddZKDn-67" edge="1">
          <mxGeometry relative="1" as="geometry" />
        </mxCell>
        <mxCell id="GIrnh-LCdGbgV-ddZKDn-62" value="Feature Selection" style="rounded=1;whiteSpace=wrap;html=1;" parent="1" vertex="1">
          <mxGeometry x="1260" y="490" width="120" height="50" as="geometry" />
        </mxCell>
        <mxCell id="GIrnh-LCdGbgV-ddZKDn-64" style="edgeStyle=orthogonalEdgeStyle;rounded=0;orthogonalLoop=1;jettySize=auto;html=1;entryX=0.5;entryY=0;entryDx=0;entryDy=0;" parent="1" source="GIrnh-LCdGbgV-ddZKDn-67" target="GIrnh-LCdGbgV-ddZKDn-73" edge="1">
          <mxGeometry relative="1" as="geometry">
            <mxPoint x="1145" y="665" as="targetPoint" />
          </mxGeometry>
        </mxCell>
        <mxCell id="GIrnh-LCdGbgV-ddZKDn-65" value="" style="edgeStyle=orthogonalEdgeStyle;rounded=0;orthogonalLoop=1;jettySize=auto;html=1;" parent="1" source="GIrnh-LCdGbgV-ddZKDn-67" target="GIrnh-LCdGbgV-ddZKDn-71" edge="1">
          <mxGeometry relative="1" as="geometry" />
        </mxCell>
        <mxCell id="GIrnh-LCdGbgV-ddZKDn-66" style="edgeStyle=orthogonalEdgeStyle;rounded=0;orthogonalLoop=1;jettySize=auto;html=1;entryX=0.5;entryY=0;entryDx=0;entryDy=0;" parent="1" source="GIrnh-LCdGbgV-ddZKDn-67" target="GIrnh-LCdGbgV-ddZKDn-76" edge="1">
          <mxGeometry relative="1" as="geometry" />
        </mxCell>
        <mxCell id="GIrnh-LCdGbgV-ddZKDn-67" value="Classification" style="whiteSpace=wrap;html=1;rounded=1;" parent="1" vertex="1">
          <mxGeometry x="1260" y="565" width="120" height="40" as="geometry" />
        </mxCell>
        <mxCell id="GIrnh-LCdGbgV-ddZKDn-68" style="edgeStyle=orthogonalEdgeStyle;rounded=0;orthogonalLoop=1;jettySize=auto;html=1;entryX=1;entryY=0.5;entryDx=0;entryDy=0;exitX=0.5;exitY=1;exitDx=0;exitDy=0;" parent="1" source="GIrnh-LCdGbgV-ddZKDn-69" target="GIrnh-LCdGbgV-ddZKDn-74" edge="1">
          <mxGeometry relative="1" as="geometry">
            <Array as="points">
              <mxPoint x="1593" y="800" />
            </Array>
          </mxGeometry>
        </mxCell>
        <mxCell id="GIrnh-LCdGbgV-ddZKDn-69" value="Random Forest" style="rounded=1;whiteSpace=wrap;html=1;" parent="1" vertex="1">
          <mxGeometry x="1540" y="665" width="106" height="40" as="geometry" />
        </mxCell>
        <mxCell id="GIrnh-LCdGbgV-ddZKDn-70" style="edgeStyle=orthogonalEdgeStyle;rounded=0;orthogonalLoop=1;jettySize=auto;html=1;entryX=0.5;entryY=0;entryDx=0;entryDy=0;" parent="1" source="GIrnh-LCdGbgV-ddZKDn-71" target="GIrnh-LCdGbgV-ddZKDn-74" edge="1">
          <mxGeometry relative="1" as="geometry" />
        </mxCell>
        <mxCell id="GIrnh-LCdGbgV-ddZKDn-71" value="KNN" style="whiteSpace=wrap;html=1;rounded=1;" parent="1" vertex="1">
          <mxGeometry x="1277.5" y="665" width="85" height="40" as="geometry" />
        </mxCell>
        <mxCell id="GIrnh-LCdGbgV-ddZKDn-72" style="edgeStyle=orthogonalEdgeStyle;rounded=0;orthogonalLoop=1;jettySize=auto;html=1;entryX=0;entryY=0.5;entryDx=0;entryDy=0;" parent="1" source="GIrnh-LCdGbgV-ddZKDn-73" target="GIrnh-LCdGbgV-ddZKDn-74" edge="1">
          <mxGeometry relative="1" as="geometry">
            <mxPoint x="1205" y="865" as="targetPoint" />
            <Array as="points">
              <mxPoint x="1183" y="800" />
            </Array>
          </mxGeometry>
        </mxCell>
        <mxCell id="GIrnh-LCdGbgV-ddZKDn-73" value="SVM" style="rounded=1;whiteSpace=wrap;html=1;" parent="1" vertex="1">
          <mxGeometry x="1138" y="665" width="90" height="40" as="geometry" />
        </mxCell>
        <mxCell id="GIrnh-LCdGbgV-ddZKDn-74" value="Ensemble Model" style="rounded=1;whiteSpace=wrap;html=1;" parent="1" vertex="1">
          <mxGeometry x="1320" y="770" width="120" height="60" as="geometry" />
        </mxCell>
        <mxCell id="GIrnh-LCdGbgV-ddZKDn-75" style="edgeStyle=orthogonalEdgeStyle;rounded=0;orthogonalLoop=1;jettySize=auto;html=1;entryX=0.5;entryY=0;entryDx=0;entryDy=0;" parent="1" source="GIrnh-LCdGbgV-ddZKDn-76" target="GIrnh-LCdGbgV-ddZKDn-74" edge="1">
          <mxGeometry relative="1" as="geometry" />
        </mxCell>
        <mxCell id="GIrnh-LCdGbgV-ddZKDn-76" value="K-means" style="rounded=1;whiteSpace=wrap;html=1;" parent="1" vertex="1">
          <mxGeometry x="1395" y="665" width="90" height="40" as="geometry" />
        </mxCell>
      </root>
    </mxGraphModel>
  </diagram>
</mxfile>
